#N canvas 424 193 276 187 10;
#X obj 23 68 osc~;
#X obj 14 151 dac~;
#X obj 23 10 receive midinote;
#X obj 23 34 mtof;
#X obj 77 39 receive gate;
#X obj 71 99 line~;
#X obj 23 112 *~;
#X msg 172 12 \; midinote 60 \; gate 1 \;;
#X msg 174 85 \; gate 0;
#X obj 122 90 print;
#X msg 79 69 \$1 1;
#X connect 0 0 6 0;
#X connect 2 0 3 0;
#X connect 3 0 0 0;
#X connect 4 0 10 0;
#X connect 5 0 6 1;
#X connect 6 0 1 0;
#X connect 6 0 1 1;
#X connect 10 0 5 0;
#X connect 10 0 9 0;
