#N canvas 523 38 597 396 10;
#X obj 6 36 inlet trig;
#X obj 134 56 inlet level;
#X obj 225 331 line~;
#X obj 225 365 outlet~;
#X obj 113 83 t b;
#X obj 6 66 sel 0;
#X obj 113 190 f \$1;
#X obj 156 273 pack 0 \$2;
#X obj 395 56 inlet % sustain;
#X obj 225 157 f \$4;
#X obj 294 273 pack 0 \$5;
#X obj 225 273 pack 0 \$3;
#X obj 225 247 * \$1;
#X obj 225 182 * 0.01;
#X msg 6 103 stop;
#X text 2 189 Store attack level;
#X text 4 122 If 0 \, stop;
#X text 4 136 attack and;
#X text 4 150 trigger release;
#X obj 225 120 del \$2;
#X text 218 38 Attack Speed;
#X text 309 38 Decay Speed;
#X text 503 38 Release Speed;
#X obj 219 56 inlet attack;
#X obj 310 56 inlet decay;
#X obj 504 56 inlet release;
#X text 131 38 Attack Level;
#X text 6 1 Send 1 to start attack;
#X text 5 17 0 to release;
#X text 394 38 Sustain %;
#X text 292 187 as % of attack;
#X text 273 173 <- Derive sustain level;
#X connect 0 0 5 0;
#X connect 1 0 6 1;
#X connect 1 0 12 1;
#X connect 2 0 3 0;
#X connect 4 0 6 0;
#X connect 4 0 19 0;
#X connect 5 0 10 0;
#X connect 5 0 14 0;
#X connect 5 1 4 0;
#X connect 6 0 7 0;
#X connect 7 0 2 0;
#X connect 8 0 9 0;
#X connect 9 0 13 0;
#X connect 10 0 2 0;
#X connect 11 0 2 0;
#X connect 12 0 11 0;
#X connect 13 0 12 0;
#X connect 14 0 19 0;
#X connect 19 0 9 0;
#X connect 23 0 7 1;
#X connect 23 0 19 1;
#X connect 24 0 11 1;
#X connect 25 0 10 1;
