#N canvas 288 77 840 452 10;
#X text 97 10 load a square wave;
#X text 98 23 at startup;
#X obj 154 53 cnv 15 200 280 empty empty Thruster 20 12 0 14 -233017
-66577 0;
#X obj 181 124 noise~;
#X obj 198 179 *~;
#X obj 198 207 samphold~;
#X obj 198 297 dac~;
#X obj 198 263 hip~ 200;
#X obj 264 188 phasor~ 800;
#X obj 235 160 line~;
#X msg 235 124 \$1 200;
#X obj 198 235 *~ 0.1;
#X obj 235 87 receive thruster;
#X obj 667 54 cnv 15 140 220 empty empty Bullet 20 12 0 14 -233017
-66577 0;
#X obj 516 54 cnv 15 140 220 empty empty Ship_Hit 20 12 0 14 -228856
-66577 0;
#X obj 365 54 cnv 15 140 220 empty empty Asteroid_Hit 20 12 0 14 -233017
-66577 0;
#X obj 550 325 samphold~;
#X obj 691 215 tabosc4~ square;
#X obj 550 405 dac~;
#X obj 691 188 line~;
#X obj 616 306 phasor~ 8000;
#X obj 550 210 tabosc4~ square;
#X obj 550 182 line~;
#X obj 534 107 unpack f f;
#X msg 534 143 0 \$1;
#X obj 399 213 tabosc4~ square;
#X obj 399 185 line~;
#X obj 384 109 unpack f f;
#X msg 384 146 0 \$1;
#X obj 550 371 hip~ 1000;
#X obj 671 112 unpack f f;
#X msg 671 148 0 \$1;
#X obj 691 246 *~ 0.5;
#X obj 384 82 receive asteroid;
#X obj 534 79 receive ship;
#X obj 671 84 receive bullet;
#X text 622 323 8-bit-ify;
#X text 623 336 these sounds;
#X text 613 371 cut low frequencies;
#X text 699 263;
#X text 700 276;
#X obj 13 53 cnv 15 130 280 empty empty Test_Messages 20 12 0 14 -233017
-66577 0;
#X msg 20 82 \; bullet 25 200 \;;
#X msg 20 246 \; thruster 0;
#X msg 20 205 \; thruster 1;
#N canvas 220 288 450 300 wavesetup 0;
#X obj 12 9 loadbang;
#N canvas 0 22 450 278 (subpatch) 0;
#X array square 1027 float 2;
#X coords 0 1 1027 -1 200 140 1 0 0;
#X restore 12 127 graph;
#X msg 12 37 \; square sinesum 1024 1 0 0.333333 0 0.2 0 0.142857 0
0.111111 0 0.090909 0 0.076923 0 0.066667 0 0.058824 0 0.052632 0 0.047619
0 \; square normalize 1 \;;
#X connect 0 0 2 0;
#X restore 16 14 pd wavesetup;
#X msg 20 164 \; ship 1000 50 \;;
#X msg 20 123 \; asteroid 200 100 \;;
#X connect 3 0 4 0;
#X connect 4 0 5 0;
#X connect 5 0 11 0;
#X connect 7 0 6 0;
#X connect 7 0 6 1;
#X connect 8 0 5 1;
#X connect 9 0 4 1;
#X connect 10 0 9 0;
#X connect 11 0 7 0;
#X connect 12 0 10 0;
#X connect 16 0 29 0;
#X connect 17 0 32 0;
#X connect 19 0 17 0;
#X connect 20 0 16 1;
#X connect 21 0 16 0;
#X connect 22 0 21 0;
#X connect 23 0 24 0;
#X connect 23 1 22 0;
#X connect 24 0 22 0;
#X connect 25 0 16 0;
#X connect 26 0 25 0;
#X connect 27 0 28 0;
#X connect 27 1 26 0;
#X connect 28 0 26 0;
#X connect 29 0 18 0;
#X connect 29 0 18 1;
#X connect 30 0 31 0;
#X connect 30 1 19 0;
#X connect 31 0 19 0;
#X connect 32 0 16 0;
#X connect 33 0 27 0;
#X connect 34 0 23 0;
#X connect 35 0 30 0;
