#N canvas 522 52 807 588 10;
#X obj 460 353 samphold~;
#X obj 22 19 loadbang;
#N canvas 0 22 450 278 (subpatch) 0;
#X array square 1027 float 2;
#X coords 0 1 1027 -1 200 140 1 0 0;
#X restore 22 137 graph;
#X obj 543 247 tabosc4~ square;
#X msg 22 47 \; square sinesum 1024 1 0 0.333333 0 0.2 0 0.142857 0
0.111111 0 0.090909 0 0.076923 0 0.066667 0 0.058824 0 0.052632 0 0.047619
0 \; square normalize 1 \;;
#X obj 460 433 dac~;
#X obj 548 57 r bullet;
#X obj 568 201 line~;
#X obj 526 334 phasor~ 8000;
#X obj 389 242 tabosc4~ square;
#X obj 414 196 line~;
#X obj 394 100 unpack f f;
#X msg 372 163 0 \$1;
#X obj 393 74 r ship;
#X obj 277 292 tabosc4~ square;
#X obj 302 246 line~;
#X obj 282 150 unpack f f;
#X msg 260 213 0 \$1;
#X obj 281 124 r asteroid;
#X obj 460 399 hip~ 1000;
#X obj 548 105 unpack f f;
#X msg 541 144 0 \$1;
#X msg 651 33 \; bullet 25 500 \;;
#X obj 515 289 *~ 0.5;
#X obj 64 318 noise~;
#X obj 101 397 *~;
#X obj 119 328 r thruster;
#X obj 134 369 tgl 15 0 empty empty empty 17 7 0 10 -262144 -1 -1 0
1;
#X msg 652 91 \; thruster bang;
#X obj 94 434 samphold~;
#X obj 94 534 dac~;
#X obj 94 500 hip~ 200;
#X obj 96 466 *~ 0.25;
#X obj 160 415 phasor~ 800;
#X connect 0 0 19 0;
#X connect 1 0 4 0;
#X connect 3 0 23 0;
#X connect 6 0 20 0;
#X connect 7 0 3 0;
#X connect 8 0 0 1;
#X connect 9 0 0 0;
#X connect 10 0 9 0;
#X connect 11 0 12 0;
#X connect 11 1 10 0;
#X connect 12 0 10 0;
#X connect 13 0 11 0;
#X connect 14 0 0 0;
#X connect 15 0 14 0;
#X connect 16 0 17 0;
#X connect 16 1 15 0;
#X connect 17 0 15 0;
#X connect 18 0 16 0;
#X connect 19 0 5 0;
#X connect 19 0 5 1;
#X connect 20 0 21 0;
#X connect 20 1 7 0;
#X connect 21 0 7 0;
#X connect 23 0 0 0;
#X connect 24 0 25 0;
#X connect 25 0 29 0;
#X connect 26 0 27 0;
#X connect 27 0 25 1;
#X connect 29 0 32 0;
#X connect 31 0 30 0;
#X connect 31 0 30 1;
#X connect 32 0 31 0;
#X connect 33 0 29 1;
